#!OML:ASF G:\JayActor3\Patient Classification 1\Patient 1\Session 6\male.ASF
:FULLY-SPECIFIED
:DEGREES
1525
root -1.4553 16.2766 -21.9827 174.384 -34.8698 -173.794
lowerback -0.737191 0.0701275 2.42859
upperback 2.6207 -0.0377312 0.802479
thorax 3.10594 0.00850389 -0.538351
lowerneck -6.51523 -2.13297 -0.331891
upperneck 10.5874 -3.29515 2.64629
head 4.75595 -1.55938 0.751879
rclavicle 3.27995e-015 -1.55052e-014
rhumerus -40.6025 44.5889 -95.1373
rradius 111.832
rwrist -33.0341
rhand -29.3508 -12.8971
rfingers 7.12502
rthumb -2.69045 -42.8599
lclavicle 3.27995e-015 -1.55052e-014
lhumerus -32.2663 8.21934 82.6092
lradius 24.939
lwrist 15.8884
lhand -16.821 11.2941
lfingers 7.12502
lthumb 9.40806 41.0641
rfemur -13.4055 7.96889 19.3325
rtibia 35.7717
rfoot -19.8153 -11.1648
rtoes -0.800441
lfemur -1.17995 10.1375 -17.4926
ltibia 26.246
lfoot -23.7634 16.9292
ltoes -3.45635
1526
root -1.45588 16.2769 -21.9823 174.389 -34.8769 -173.79
lowerback -0.738063 0.0660164 2.43818
upperback 2.61595 -0.0431498 0.80026
thorax 3.10139 0.00606237 -0.546189
lowerneck -6.52204 -2.13208 -0.326262
upperneck 10.5832 -3.29341 2.64028
head 4.75552 -1.55844 0.748874
rclavicle -3.21037e-014 -1.19271e-015
rhumerus -40.5973 44.5934 -95.1468
rradius 111.829
rwrist -33.0492
rhand -29.3442 -12.888
rfingers 7.12502
rthumb -2.68412 -42.8508
lclavicle -3.21037e-014 -1.19271e-015
lhumerus -32.2602 8.20212 82.6194
lradius 24.9419
lwrist 15.9048
lhand -16.8107 11.2874
lfingers 7.12502
lthumb 9.41796 41.0569
rfemur -13.4143 7.96032 19.3313
rtibia 35.7727
rfoot -19.8162 -11.1617
rtoes -0.806002
lfemur -1.18857 10.1216 -17.4966
ltibia 26.2418
lfoot -23.7623 16.9381
ltoes -3.45087
1527
root -1.45624 16.2771 -21.9821 174.394 -34.8798 -173.785
lowerback -0.738963 0.0636789 2.44544
upperback 2.6105 -0.0461743 0.799683
thorax 3.0962 0.00472283 -0.55095
lowerneck -6.52492 -2.13174 -0.326275
upperneck 10.5777 -3.29229 2.63861
head 4.75401 -1.55788 0.748361
rclavicle 8.27441e-015 -1.19271e-015
rhumerus -40.5907 44.5965 -95.1553
rradius 111.823
rwrist -33.0629
rhand -29.3303 -12.8764
rfingers 7.12502
rthumb -2.67071 -42.8395
lclavicle 8.27441e-015 -1.19271e-015
lhumerus -32.2547 8.18556 82.6305
lradius 24.9473
lwrist 15.9233
lhand -16.8031 11.2741
lfingers 7.12502
lthumb 9.42535 41.0434
rfemur -13.4209 7.95808 19.3326
rtibia 35.7684
rfoot -19.8176 -11.1595
rtoes -0.799668
lfemur -1.2006 10.1165 -17.4964
ltibia 26.2449
lfoot -23.7624 16.9414
ltoes -3.45382
1528
root -1.45633 16.277 -21.9823 174.382 -34.8697 -173.766
lowerback -0.734241 0.0649659 2.46102
upperback 2.60905 -0.044881 0.804022
thorax 3.09211 0.00558944 -0.555171
lowerneck -6.52479 -2.13064 -0.330699
upperneck 10.5699 -3.29013 2.64159
head 4.75124 -1.5568 0.750326
rclavicle 4.03284e-014 -1.07344e-014
rhumerus -40.5811 44.6002 -95.1622
rradius 111.813
rwrist -33.0747
rhand -29.3147 -12.8612
rfingers 7.12502
rthumb -2.65564 -42.8244
lclavicle 4.03284e-014 -1.07344e-014
lhumerus -32.2477 8.17224 82.641
lradius 24.954
lwrist 15.9395
lhand -16.7982 11.2566
lfingers 7.12502
lthumb 9.43002 41.0256
rfemur -13.4179 7.96896 19.3526
rtibia 35.7652
rfoot -19.8169 -11.1627
rtoes -0.809386
lfemur -1.1989 10.1286 -17.4753
ltibia 26.2466
lfoot -23.7595 16.9394
ltoes -3.46899
1529
root -1.45689 16.2771 -21.982 174.384 -34.8787 -173.765
lowerback -0.734735 0.0601262 2.46856
upperback 2.60769 -0.051375 0.801525
thorax 3.09082 0.00257648 -0.56218
lowerneck -6.52438 -2.13028 -0.337897
upperneck 10.5607 -3.28904 2.6484
head 4.74808 -1.55617 0.754032
rclavicle 3.86388e-014 -9.14409e-015
rhumerus -40.5669 44.6031 -95.1667
rradius 111.801
rwrist -33.0851
rhand -29.2989 -12.8494
rfingers 7.12502
rthumb -2.64035 -42.8128
lclavicle 3.86388e-014 -9.14409e-015
lhumerus -32.2383 8.16235 82.6506
lradius 24.9618
lwrist 15.9493
lhand -16.7994 11.2381
lfingers 7.12502
lthumb 9.42888 41.0072
rfemur -13.4208 7.95573 19.3492
rtibia 35.7698
rfoot -19.8203 -11.1552
rtoes -0.813644
lfemur -1.19755 10.1237 -17.4779
ltibia 26.236
lfoot -23.7478 16.941
ltoes -3.4908
1530
root -1.45733 16.2771 -21.9819 174.408 -34.8939 -173.799
lowerback -0.738274 0.0542172 2.4453
upperback 2.60614 -0.0581988 0.791857
thorax 3.09096 -0.00113652 -0.559326
lowerneck -6.52352 -2.13105 -0.345929
upperneck 10.5515 -3.28947 2.6558
head 4.74488 -1.55629 0.757997
rclavicle -1.74185e-014 2.18663e-014
rhumerus -40.5515 44.6049 -95.1691
rradius 111.787
rwrist -33.0928
rhand -29.2821 -12.8447
rfingers 7.12502
rthumb -2.62417 -42.8083
lclavicle -1.74185e-014 2.18663e-014
lhumerus -32.2282 8.15351 82.6611
lradius 24.9699
lwrist 15.9537
lhand -16.8102 11.2159
lfingers 7.12502
lthumb 9.41843 40.9855
rfemur -13.4292 7.93399 19.3123
rtibia 35.7819
rfoot -19.8256 -11.1397
rtoes -0.808766
lfemur -1.19356 10.123 -17.512
ltibia 26.2159
lfoot -23.7282 16.9406
ltoes -3.52239
1531
root -1.45737 16.2772 -21.982 174.45 -34.9084 -173.864
lowerback -0.743724 0.0486495 2.38855
upperback 2.60532 -0.0634915 0.776631
thorax 3.09289 -0.00472847 -0.543386
lowerneck -6.52771 -2.13191 -0.350579
upperneck 10.5457 -3.29038 2.66172
head 4.7439 -1.55653 0.760766
rclavicle 3.06874e-014 -1.03368e-014
rhumerus -40.5346 44.6079 -95.1717
rradius 111.772
rwrist -33.0992
rhand -29.268 -12.8479
rfingers 7.12502
rthumb -2.61053 -42.8117
lclavicle 3.06874e-014 -1.03368e-014
lhumerus -32.2182 8.14845 82.6698
lradius 24.9804
lwrist 15.9545
lhand -16.8259 11.1959
lfingers 7.12502
lthumb 9.40337 40.9661
rfemur -13.442 7.9145 19.2484
rtibia 35.8018
rfoot -19.8342 -11.1232
rtoes -0.80186
lfemur -1.183 10.1382 -17.5697
ltibia 26.1853
lfoot -23.7043 16.9277
ltoes -3.54206
1532
root -1.45705 16.2771 -21.9825 174.472 -34.9021 -173.9
lowerback -0.745712 0.0499307 2.34988
upperback 2.60641 -0.0605449 0.770128
thorax 3.09513 -0.00400177 -0.528322
lowerneck -6.53411 -2.13308 -0.353249
upperneck 10.5415 -3.29167 2.66499
head 4.74383 -1.55698 0.762227
rclavicle -7.24819e-014 1.31198e-014
rhumerus -40.5175 44.6104 -95.1731
rradius 111.757
rwrist -33.1075
rhand -29.2565 -12.8513
rfingers 7.12502
rthumb -2.59945 -42.8152
lclavicle -7.24819e-014 1.31198e-014
lhumerus -32.2067 8.13937 82.6813
lradius 24.9914
lwrist 15.9568
lhand -16.844 11.1807
lfingers 7.12502
lthumb 9.38591 40.9517
rfemur -13.453 7.91933 19.2171
rtibia 35.8226
rfoot -19.8437 -11.115
rtoes -0.792473
lfemur -1.16572 10.1666 -17.5957
ltibia 26.1557
lfoot -23.6865 16.9139
ltoes -3.54208
1533
root -1.45652 16.2771 -21.9831 174.492 -34.8859 -173.931
lowerback -0.747776 0.0546986 2.31256
upperback 2.6076 -0.0530869 0.765805
thorax 3.09765 -0.00104064 -0.511616
lowerneck -6.54202 -2.13447 -0.352734
upperneck 10.5389 -3.29337 2.66569
head 4.74453 -1.55761 0.7622
rclavicle 4.5149e-014 -1.31198e-014
rhumerus -40.5013 44.6135 -95.1752
rradius 111.742
rwrist -33.1159
rhand -29.2493 -12.856
rfingers 7.12502
rthumb -2.59247 -42.82
lclavicle 4.5149e-014 -1.31198e-014
lhumerus -32.1951 8.1277 82.6944
lradius 25.0037
lwrist 15.963
lhand -16.8644 11.1693
lfingers 7.12502
lthumb 9.3662 40.9412
rfemur -13.4659 7.9338 19.1925
rtibia 35.8433
rfoot -19.8522 -11.1096
rtoes -0.788801
lfemur -1.14947 10.2035 -17.6151
ltibia 26.1301
lfoot -23.6745 16.8982
ltoes -3.52946
1534
root -1.4557 16.2769 -21.9837 174.488 -34.8531 -173.932
lowerback -0.741657 0.0642493 2.29704
upperback 2.61107 -0.0401267 0.769672
thorax 3.09808 0.00493665 -0.498506
lowerneck -6.55267 -2.13532 -0.348752
upperneck 10.5381 -3.29437 2.66274
head 4.74628 -1.55789 0.760319
rclavicle 6.71644e-014 -3.97569e-016
rhumerus -40.4859 44.6177 -95.1782
rradius 111.729
rwrist -33.125
rhand -29.2463 -12.8586
rfingers 7.12502
rthumb -2.58959 -42.8226
lclavicle 6.71644e-014 -3.97569e-016
lhumerus -32.1829 8.11612 82.7084
lradius 25.018
lwrist 15.9701
lhand -16.8768 11.1697
lfingers 7.12502
lthumb 9.35418 40.9422
rfemur -13.4711 7.96736 19.2007
rtibia 35.8572
rfoot -19.8558 -11.1143
rtoes -0.79254
lfemur -1.13207 10.2446 -17.6033
ltibia 26.1171
lfoot -23.6742 16.8851
ltoes -3.50213
1535
root -1.45493 16.2768 -21.9839 174.498 -34.829 -173.949
lowerback -0.738518 0.0715812 2.27079
upperback 2.61452 -0.029728 0.769493
thorax 3.10008 0.0094953 -0.483643
lowerneck -6.56517 -2.1364 -0.34604
upperneck 10.5377 -3.29558 2.66024
head 4.74861 -1.55828 0.758791
rclavicle 1.13904e-013 -2.38542e-015
rhumerus -40.4694 44.6218 -95.18
rradius 111.716
rwrist -33.134
rhand -29.2489 -12.8612
rfingers 7.12502
rthumb -2.59211 -42.8252
lclavicle 1.13904e-013 -2.38542e-015
lhumerus -32.168 8.10583 82.7232
lradius 25.0326
lwrist 15.9767
lhand -16.8818 11.1833
lfingers 7.12502
lthumb 9.34935 40.956
rfemur -13.4798 7.99081 19.1916
rtibia 35.8686
rfoot -19.8574 -11.1151
rtoes -0.797575
lfemur -1.12329 10.2761 -17.6098
ltibia 26.1086
lfoot -23.6763 16.8755
ltoes -3.47555
1536
root -1.45449 16.2767 -21.9839 174.499 -34.81 -173.952
lowerback -0.735623 0.0777431 2.26225
upperback 2.61933 -0.0215129 0.770714
thorax 3.10361 0.0133528 -0.477322
lowerneck -6.57709 -2.13766 -0.344562
upperneck 10.5358 -3.29706 2.65995
head 4.75036 -1.55874 0.758227
rclavicle 1.63252e-014 -7.15625e-015
rhumerus -40.4519 44.6249 -95.1796
rradius 111.705
rwrist -33.1407
rhand -29.2534 -12.8645
rfingers 7.12502
rthumb -2.59641 -42.8285
lclavicle 1.63252e-014 -7.15625e-015
lhumerus -32.1495 8.09681 82.7382
lradius 25.047
lwrist 15.9856
lhand -16.879 11.2025
lfingers 7.12502
lthumb 9.35208 40.975
rfemur -13.487 8.0078 19.1925
rtibia 35.8759
rfoot -19.8568 -11.1149
rtoes -0.801289
lfemur -1.11882 10.2897 -17.6094
ltibia 26.1038
lfoot -23.6793 16.8767
ltoes -3.45705
1537
root -1.4547 16.2767 -21.9833 174.509 -34.8148 -173.967
lowerback -0.736023 0.076056 2.25273
upperback 2.62487 -0.0236077 0.766222
thorax 3.10947 0.0121927 -0.476673
lowerneck -6.5928 -2.13898 -0.342344
upperneck 10.5347 -3.2987 2.6596
head 4.75313 -1.55918 0.757462
rclavicle 3.97569e-016 1.35174e-014
rhumerus -40.4319 44.6289 -95.1772
rradius 111.695
rwrist -33.1461
rhand -29.259 -12.8687
rfingers 7.12502
rthumb -2.60187 -42.8326
lclavicle 3.97569e-016 1.35174e-014
lhumerus -32.1278 8.09208 82.7522
lradius 25.06
lwrist 15.9905
lhand -16.8745 11.2221
lfingers 7.12502
lthumb 9.35645 40.9944
rfemur -13.4953 7.99815 19.1751
rtibia 35.8836
rfoot -19.855 -11.1084
rtoes -0.810259
lfemur -1.11881 10.2791 -17.6288
ltibia 26.0945
lfoot -23.6772 16.8837
ltoes -3.44804
1538
root -1.45539 16.2768 -21.9825 174.527 -34.833 -173.989
lowerback -0.741469 0.069286 2.24249
upperback 2.62955 -0.0324411 0.759501
thorax 3.11714 0.00774016 -0.478141
lowerneck -6.60626 -2.13953 -0.341866
upperneck 10.5319 -3.29906 2.65958
head 4.75487 -1.55909 0.757229
rclavicle 7.20594e-016 -5.1684e-015
rhumerus -40.4145 44.6349 -95.1749
rradius 111.687
rwrist -33.1459
rhand -29.26 -12.8771
rfingers 7.12502
rthumb -2.60282 -42.8409
lclavicle 7.20594e-016 -5.1684e-015
lhumerus -32.1072 8.09348 82.7651
lradius 25.0741
lwrist 15.9946
lhand -16.867 11.2388
lfingers 7.12502
lthumb 9.36365 41.0108
rfemur -13.5053 7.97164 19.1463
rtibia 35.8886
rfoot -19.8522 -11.0953
rtoes -0.812073
lfemur -1.1259 10.2555 -17.6598
ltibia 26.0862
lfoot -23.6712 16.8955
ltoes -3.45931
1539
root -1.456 16.2769 -21.9819 174.553 -34.8483 -174.018
lowerback -0.751099 0.0629554 2.22064
upperback 2.63318 -0.0404141 0.752855
thorax 3.12607 0.00347261 -0.473008
lowerneck -6.61911 -2.13996 -0.341307
upperneck 10.53 -3.2993 2.65919
head 4.75679 -1.55896 0.756869
rclavicle -6.26669e-014 -1.98785e-015
rhumerus -40.4019 44.6432 -95.174
rradius 111.68
rwrist -33.1406
rhand -29.2631 -12.8865
rfingers 7.12502
rthumb -2.60578 -42.8503
lclavicle -6.26669e-014 -1.98785e-015
lhumerus -32.09 8.09672 82.7777
lradius 25.0902
lwrist 16.004
lhand -16.8605 11.2493
lfingers 7.12502
lthumb 9.36998 41.0211
rfemur -13.5178 7.9494 19.1114
rtibia 35.8937
rfoot -19.8501 -11.0824
rtoes -0.806827
lfemur -1.13323 10.2426 -17.6952
ltibia 26.0758
lfoot -23.661 16.9027
ltoes -3.48375
